<svg xmlns="http://www.w3.org/2000/svg" fill="#6a0dad" viewBox="0 0 24 24"><path d="M12 .5C5.65.5.5 5.65.5 12a11.5 11.5 0 0 0 7.88 10.94c.58.1.8-.25.8-.56v-2c-3.21.7-3.89-1.55-3.89-1.55-.53-1.34-1.3-1.7-1.3-1.7-1.06-.7.08-.7.08-.7 1.17.08 1.79 1.19 1.79 1.19 1.04 1.78 2.75 1.26 3.42.96.1-.76.4-1.27.72-1.57-2.56-.3-5.26-1.28-5.26-5.67 0-1.25.45-2.28 1.18-3.08-.12-.3-.52-1.52.11-3.17 0 0 .97-.31 3.18 1.18a11 11 0 0 1 5.8 0C17.6 4.35 18.57 4.66 18.57 4.66c.63 1.65.23 2.87.11 3.17.73.8 1.18 1.83 1.18 3.08 0 4.4-2.7 5.37-5.27 5.67.42.36.77 1.1.77 2.22v3.3c0 .31.22.66.8.56A11.5 11.5 0 0 0 23.5 12C23.5 5.65 18.35.5 12 .5z"/></svg>